HIERARCHY
ROOT Hips
{
	OFFSET 0.000000 71.427986 0.000000
	CHANNELS 6 Xposition Yposition Zposition Xrotation Yrotation Zrotation
	JOINT Pelvis
	{
		OFFSET 0.000000 0.000000 0.000000
		CHANNELS 3 Xrotation Yrotation Zrotation
		JOINT LeftUpLeg
		{
			OFFSET 6.797100 -2.508499 -1.318700
			CHANNELS 3 Xrotation Yrotation Zrotation
			JOINT LeftLeg
			{
				OFFSET 0.069008 -29.241863 0.690200
				CHANNELS 3 Xrotation Yrotation Zrotation
				JOINT LeftFoot
				{
					OFFSET -0.069008 -29.568123 -0.266800
					CHANNELS 3 Xrotation Yrotation Zrotation
					JOINT LeftToeBase
					{
						OFFSET 3.145500 -8.631000 16.059900
						CHANNELS 3 Xrotation Yrotation Zrotation
						End Site
						{
							OFFSET 0.000000 18.501587 0.000000
						}
					}
				}
			}
			JOINT Left_ShortSleeve
			{
				OFFSET 0.265923 -10.480953 1.153800
				CHANNELS 3 Xrotation Yrotation Zrotation
				End Site
				{
					OFFSET 1.725763 19.823879 0.000000
				}
			}
		}
		JOINT RightUpLeg
		{
			OFFSET -6.797100 -2.508499 -1.318700
			CHANNELS 3 Xrotation Yrotation Zrotation
			JOINT RightLeg
			{
				OFFSET -0.082453 -29.241932 0.688000
				CHANNELS 3 Xrotation Yrotation Zrotation
				JOINT RightFoot
				{
					OFFSET 0.082453 -29.568058 -0.264600
					CHANNELS 3 Xrotation Yrotation Zrotation
					JOINT RightToeBase
					{
						OFFSET -3.115300 -8.682800 16.113400
						CHANNELS 3 Xrotation Yrotation Zrotation
						End Site
						{
							OFFSET 0.000000 18.567114 0.000000
						}
					}
				}
			}
			JOINT Right_ShortSleeve
			{
				OFFSET -0.265923 -10.480953 1.153800
				CHANNELS 3 Xrotation Yrotation Zrotation
				End Site
				{
					OFFSET -1.725766 19.823910 0.000000
				}
			}
		}
	}
	JOINT Spine
	{
		OFFSET 0.000000 13.368103 0.470500
		CHANNELS 3 Xrotation Yrotation Zrotation
		JOINT Spine1
		{
			OFFSET 0.147000 13.837402 0.538800
			CHANNELS 3 Xrotation Yrotation Zrotation
			JOINT Spine2
			{
				OFFSET 0.168000 16.242897 -1.435500
				CHANNELS 3 Xrotation Yrotation Zrotation
				JOINT Neck
				{
					OFFSET 0.217200 18.631500 -1.679100
					CHANNELS 3 Xrotation Yrotation Zrotation
					JOINT Head
					{
						OFFSET 0.000000 6.599396 1.385900
						CHANNELS 3 Xrotation Yrotation Zrotation
						JOINT Hat
						{
							OFFSET -0.532200 27.220596 -10.096100
							CHANNELS 3 Xrotation Yrotation Zrotation
							End Site
							{
								OFFSET 0.000000 22.029861 0.000000
							}
						}
						JOINT HairD
						{
							OFFSET -10.777400 17.437393 -1.325900
							CHANNELS 3 Xrotation Yrotation Zrotation
							JOINT HairD1
							{
								OFFSET -3.290299 -11.051193 1.062200
								CHANNELS 3 Xrotation Yrotation Zrotation
								End Site
								{
									OFFSET 0.000000 11.579437 0.000000
								}
							}
						}
						JOINT HairB
						{
							OFFSET -10.777400 17.437393 1.467900
							CHANNELS 3 Xrotation Yrotation Zrotation
							JOINT HairB1
							{
								OFFSET -1.561200 -12.956299 3.590200
								CHANNELS 3 Xrotation Yrotation Zrotation
								End Site
								{
									OFFSET 0.000000 13.534866 0.000000
								}
							}
						}
						JOINT HairA
						{
							OFFSET 9.713100 17.437393 1.467900
							CHANNELS 3 Xrotation Yrotation Zrotation
							JOINT HairA1
							{
								OFFSET 1.561200 -12.956299 3.590200
								CHANNELS 3 Xrotation Yrotation Zrotation
								End Site
								{
									OFFSET 0.000000 13.534866 0.000000
								}
							}
						}
						JOINT HairC
						{
							OFFSET 9.713100 17.437393 -1.325900
							CHANNELS 3 Xrotation Yrotation Zrotation
							JOINT HairC1
							{
								OFFSET 3.290300 -11.051193 1.062200
								CHANNELS 3 Xrotation Yrotation Zrotation
								End Site
								{
									OFFSET 0.000000 11.579437 0.000000
								}
							}
						}
					}
				}
				JOINT LeftShoulder
				{
					OFFSET 5.101800 15.108002 -2.763700
					CHANNELS 3 Xrotation Yrotation Zrotation
					JOINT LeftArm
					{
						OFFSET 9.825497 2.506317 -1.597400
						CHANNELS 3 Xrotation Yrotation Zrotation
						JOINT LeftForeArm
						{
							OFFSET 21.966244 0.000000 0.000000
							CHANNELS 3 Xrotation Yrotation Zrotation
							JOINT LeftHand
							{
								OFFSET 33.879036 0.000000 0.000000
								CHANNELS 3 Xrotation Yrotation Zrotation
								JOINT LeftHandThumb1
								{
									OFFSET 6.715286 -2.359680 3.363841
									CHANNELS 3 Xrotation Yrotation Zrotation
									JOINT LeftHandThumb2
									{
										OFFSET 2.507072 -1.447464 1.447461
										CHANNELS 3 Xrotation Yrotation Zrotation
										JOINT LeftHandThumb3
										{
											OFFSET 2.898338 -1.673355 1.673357
											CHANNELS 3 Xrotation Yrotation Zrotation
											End Site
											{
												OFFSET -0.295959 3.727692 -0.131651
											}
										}
									}
								}
								JOINT LeftHandIndex1
								{
									OFFSET 14.190811 -0.254547 3.840278
									CHANNELS 3 Xrotation Yrotation Zrotation
									JOINT LeftHandIndex2
									{
										OFFSET 3.551727 0.000000 -0.000000
										CHANNELS 3 Xrotation Yrotation Zrotation
										JOINT LeftHandIndex3
										{
											OFFSET 2.894196 0.000000 0.000000
											CHANNELS 3 Xrotation Yrotation Zrotation
											End Site
											{
												OFFSET -1.000603 2.690872 0.366626
											}
										}
									}
								}
								JOINT LeftHandMiddle1
								{
									OFFSET 13.776489 0.000000 0.000000
									CHANNELS 3 Xrotation Yrotation Zrotation
									JOINT LeftHandMiddle2
									{
										OFFSET 3.438232 0.000000 0.000000
										CHANNELS 3 Xrotation Yrotation Zrotation
										JOINT LeftHandMiddle3
										{
											OFFSET 3.691551 0.000000 0.000000
											CHANNELS 3 Xrotation Yrotation Zrotation
											End Site
											{
												OFFSET -1.082298 3.499527 0.457670
											}
										}
									}
								}
								JOINT LeftHandRing1
								{
									OFFSET 13.966164 -0.268127 -3.067488
									CHANNELS 3 Xrotation Yrotation Zrotation
									JOINT LeftHandRing2
									{
										OFFSET 3.162567 0.000000 0.000000
										CHANNELS 3 Xrotation Yrotation Zrotation
										JOINT LeftHandRing3
										{
											OFFSET 3.324348 0.000000 0.000000
											CHANNELS 3 Xrotation Yrotation Zrotation
											End Site
											{
												OFFSET -0.861900 3.184998 0.405154
											}
										}
									}
								}
								JOINT LeftHandPinky1
								{
									OFFSET 13.131393 -0.168503 -5.746925
									CHANNELS 3 Xrotation Yrotation Zrotation
									JOINT LeftHandPinky2
									{
										OFFSET 2.849182 0.000000 0.000000
										CHANNELS 3 Xrotation Yrotation Zrotation
										JOINT LeftHandPinky3
										{
											OFFSET 2.805038 0.000000 0.000000
											CHANNELS 3 Xrotation Yrotation Zrotation
											End Site
											{
												OFFSET -0.882500 2.642609 0.325652
											}
										}
									}
								}
							}
							JOINT Left_Sleeve
							{
								OFFSET 6.592125 -0.646545 0.805568
								CHANNELS 3 Xrotation Yrotation Zrotation
								End Site
								{
									OFFSET -0.000179 20.275787 -0.000000
								}
							}
						}
					}
				}
				JOINT RightShoulder
				{
					OFFSET -5.731700 15.108002 -2.763700
					CHANNELS 3 Xrotation Yrotation Zrotation
					JOINT RightArm
					{
						OFFSET -9.825497 2.506317 -1.597400
						CHANNELS 3 Xrotation Yrotation Zrotation
						JOINT RightForeArm
						{
							OFFSET -21.966242 0.000000 0.000000
							CHANNELS 3 Xrotation Yrotation Zrotation
							JOINT RightHand
							{
								OFFSET -33.879032 0.000000 0.000000
								CHANNELS 3 Xrotation Yrotation Zrotation
								JOINT RightHandThumb1
								{
									OFFSET -6.715286 -2.359680 3.363841
									CHANNELS 3 Xrotation Yrotation Zrotation
									JOINT RightHandThumb2
									{
										OFFSET -2.507072 -1.447464 1.447461
										CHANNELS 3 Xrotation Yrotation Zrotation
										JOINT RightHandThumb3
										{
											OFFSET -2.898338 -1.673355 1.673357
											CHANNELS 3 Xrotation Yrotation Zrotation
											End Site
											{
												OFFSET 0.295959 3.727692 -0.131651
											}
										}
									}
								}
								JOINT RightHandIndex1
								{
									OFFSET -14.190811 -0.254547 3.840278
									CHANNELS 3 Xrotation Yrotation Zrotation
									JOINT RightHandIndex2
									{
										OFFSET -3.551727 0.000000 -0.000000
										CHANNELS 3 Xrotation Yrotation Zrotation
										JOINT RightHandIndex3
										{
											OFFSET -2.894196 0.000000 0.000000
											CHANNELS 3 Xrotation Yrotation Zrotation
											End Site
											{
												OFFSET 1.000603 2.690872 0.366626
											}
										}
									}
								}
								JOINT RightHandMiddle1
								{
									OFFSET -13.776489 0.000000 0.000000
									CHANNELS 3 Xrotation Yrotation Zrotation
									JOINT RightHandMiddle2
									{
										OFFSET -3.438232 0.000000 0.000000
										CHANNELS 3 Xrotation Yrotation Zrotation
										JOINT RightHandMiddle3
										{
											OFFSET -3.691551 0.000000 0.000000
											CHANNELS 3 Xrotation Yrotation Zrotation
											End Site
											{
												OFFSET 1.082298 3.499527 0.457670
											}
										}
									}
								}
								JOINT RightHandRing1
								{
									OFFSET -13.966164 -0.268127 -3.067488
									CHANNELS 3 Xrotation Yrotation Zrotation
									JOINT RightHandRing2
									{
										OFFSET -3.162567 0.000000 0.000000
										CHANNELS 3 Xrotation Yrotation Zrotation
										JOINT RightHandRing3
										{
											OFFSET -3.324348 0.000000 0.000000
											CHANNELS 3 Xrotation Yrotation Zrotation
											End Site
											{
												OFFSET 0.861900 3.184998 0.405154
											}
										}
									}
								}
								JOINT RightHandPinky1
								{
									OFFSET -13.131393 -0.168503 -5.746925
									CHANNELS 3 Xrotation Yrotation Zrotation
									JOINT RightHandPinky2
									{
										OFFSET -2.849182 0.000000 0.000000
										CHANNELS 3 Xrotation Yrotation Zrotation
										JOINT RightHandPinky3
										{
											OFFSET -2.805038 0.000000 0.000000
											CHANNELS 3 Xrotation Yrotation Zrotation
											End Site
											{
												OFFSET 0.882500 2.642609 0.325652
											}
										}
									}
								}
							}
							JOINT Right_Sleeve
							{
								OFFSET -6.592125 -0.646545 0.805568
								CHANNELS 3 Xrotation Yrotation Zrotation
								End Site
								{
									OFFSET 0.000179 20.275787 -0.000000
								}
							}
						}
					}
				}
				JOINT Bind_Right_JacketString
				{
					OFFSET -3.534800 11.969597 7.200700
					CHANNELS 3 Xrotation Yrotation Zrotation
					JOINT Bind_Right_JacketString1
					{
						OFFSET -0.319900 -6.102600 2.794100
						CHANNELS 3 Xrotation Yrotation Zrotation
						End Site
						{
							OFFSET 0.000000 6.719452 0.000000
						}
					}
				}
				JOINT Bind_Left_JacketString
				{
					OFFSET 2.904800 11.969597 7.200700
					CHANNELS 3 Xrotation Yrotation Zrotation
					JOINT Bind_Left_JacketString1
					{
						OFFSET 0.364800 -5.904503 3.186800
						CHANNELS 3 Xrotation Yrotation Zrotation
						End Site
						{
							OFFSET 0.000000 6.719513 0.000000
						}
					}
				}
				JOINT HairE
				{
					OFFSET 5.915200 17.612701 -11.592200
					CHANNELS 3 Xrotation Yrotation Zrotation
					JOINT HairE1
					{
						OFFSET 0.289200 -7.171898 -1.284500
						CHANNELS 3 Xrotation Yrotation Zrotation
						End Site
						{
							OFFSET 0.000000 7.291756 0.000000
						}
					}
				}
				JOINT HairF
				{
					OFFSET -0.864800 17.612701 -11.592200
					CHANNELS 3 Xrotation Yrotation Zrotation
					JOINT HairF1
					{
						OFFSET 0.000000 -14.087097 -2.127501
						CHANNELS 3 Xrotation Yrotation Zrotation
						End Site
						{
							OFFSET 0.000000 14.246841 0.000000
						}
					}
				}
				JOINT HairG
				{
					OFFSET -8.087700 17.612701 -11.592200
					CHANNELS 3 Xrotation Yrotation Zrotation
					JOINT HairG1
					{
						OFFSET -0.293600 -6.081398 -0.910100
						CHANNELS 3 Xrotation Yrotation Zrotation
						End Site
						{
							OFFSET 0.000000 6.156120 0.000000
						}
					}
				}
			}
		}
	}
	JOINT Pouch
	{
		OFFSET 0.000000 4.394501 10.847300
		CHANNELS 3 Xrotation Yrotation Zrotation
		End Site
		{
			OFFSET 0.000000 21.880577 0.000000
		}
	}
	JOINT Bag
	{
		OFFSET -13.229000 4.813004 -0.593300
		CHANNELS 3 Xrotation Yrotation Zrotation
		End Site
		{
			OFFSET 0.000000 21.880577 0.000000
		}
	}
	JOINT OccupyGuyFacialAnim_Joint
	{
		OFFSET 1.000000 -70.206398 -1.655000
		CHANNELS 3 Xrotation Yrotation Zrotation
		End Site
		{
			OFFSET 0.000000 21.880577 0.000000
		}
	}
}
MOTION
Frames: 4
Frame Time: 0.033333
-1.224293 65.645729 2.963570 -38.067800 -73.767771 -38.713427 0.000000 0.000000 0.000000 -13.508041 15.909474 26.039705 40.172007 2.515384 0.191482 -15.719726 2.727603 -17.097239 0.000000 -0.000000 -0.000000 0.000001 -0.000002 -0.000001 -9.347428 -5.423571 -18.605999 36.883377 8.539074 1.348015 -21.968890 12.857420 13.944096 -0.000000 0.000000 -0.000000 -0.000000 0.000001 -0.000003 6.060712 3.360506 -3.193459 1.058824 0.715023 -0.742382 1.061670 0.703463 -0.748584 5.229475 8.185905 -4.157848 1.255697 29.224310 2.226066 -0.000001 -0.000001 -0.000000 -0.000001 -0.000001 -0.000000 -0.000001 -0.000001 -0.000000 -0.000001 -0.000001 -0.000000 -0.000001 0.000001 -0.000000 -0.000001 -0.000001 -0.000000 -0.000001 0.000001 -0.000000 -0.000001 -0.000001 -0.000000 -0.000001 -0.000001 -0.000000 3.388211 -13.791835 -10.756613 -24.246487 35.061526 -31.979513 0.000397 -100.743016 0.000427 13.333193 -15.472084 23.806151 4.891654 7.994773 1.884016 10.475115 36.544343 -16.206458 0.000000 -0.000002 -0.000002 7.775689 6.956320 -86.152721 10.250084 6.003539 -119.372090 -0.000000 0.000000 -0.000004 6.544561 6.873013 -87.274299 9.404149 6.404060 -111.556052 0.000002 -0.000001 0.000000 3.127845 6.869441 -89.819665 9.007636 6.545914 -108.040704 -0.000000 0.000004 0.000002 1.160392 7.315429 -94.148427 8.017695 2.700475 -99.510734 -0.000000 -0.000002 0.000004 0.000001 0.000000 -0.000001 1.257293 4.748697 8.285238 -29.468598 44.935504 56.077062 0.000110 105.826876 -0.000097 -23.727328 27.459478 2.441692 2.101955 -10.083033 3.633739 25.660775 -30.716716 6.844854 -0.000002 -0.000001 0.000002 9.556177 -7.137730 86.157912 10.350184 -6.061964 119.375560 -0.000004 -0.000001 -0.000001 6.610163 -6.940070 87.289428 9.494166 -6.467106 111.542638 0.000004 -0.000001 -0.000004 1.946401 -7.142777 92.181141 8.379088 -6.800030 101.912317 0.000002 0.000001 -0.000001 -2.850679 -7.675003 94.127499 8.100962 -6.852406 99.572704 -0.000001 -0.000002 -0.000001 0.000001 -0.000002 0.000002 0.000000 -0.000000 -0.000000 0.000000 -0.000000 0.000000 0.000000 -0.000000 -0.000000 0.000000 -0.000000 -0.000000 0.000000 -0.000000 -0.000000 0.000000 -0.000000 -0.000000 0.000000 -0.000000 -0.000000 0.000000 -0.000000 -0.000000 0.000000 -0.000000 -0.000000 0.000000 -0.000000 -0.000000 0.000000 0.000000 0.000000 0.000000 0.000000 0.000000 0.000000 0.000000 0.000000 
-0.625118 65.656998 2.806427 -30.252670 -70.373652 -30.303712 0.000001 -0.000001 -0.000000 -15.993733 15.243859 25.602771 40.416948 0.175112 0.113282 -14.447131 2.354836 -15.441319 0.000000 0.000000 -0.000000 -0.000002 -0.000003 -0.000004 -9.160652 -7.442973 -19.385786 37.036277 9.738466 1.152921 -22.018993 9.846218 13.409374 0.000000 0.000000 -0.000000 0.000003 -0.000000 0.000000 7.918217 4.110985 -2.519052 1.472924 0.875664 -0.560759 1.475601 0.865954 -0.567415 5.467779 7.043231 -4.754620 1.317017 25.838746 0.120484 0.000000 -0.000001 0.000000 0.000000 -0.000001 0.000000 0.000000 -0.000001 0.000000 0.000000 -0.000001 0.000000 0.000000 -0.000001 0.000001 0.000000 -0.000001 0.000000 0.000000 -0.000001 0.000001 0.000000 -0.000001 0.000000 0.000000 -0.000001 0.000000 3.409483 -13.960202 -10.717736 -22.237697 31.598750 -34.892728 0.000210 -100.209155 0.000176 14.900505 -14.604285 24.731350 4.891654 7.994777 1.884010 10.475121 36.544343 -16.206453 0.000001 -0.000002 -0.000002 7.775688 6.956320 -86.152714 10.250085 6.003539 -119.372090 0.000003 0.000003 -0.000001 6.544561 6.873014 -87.274299 9.404149 6.404061 -111.556052 0.000001 -0.000002 0.000000 3.127844 6.869447 -89.819665 9.007627 6.545913 -108.040697 -0.000000 0.000003 0.000002 1.160389 7.315432 -94.148427 8.017694 2.700473 -99.510734 0.000001 -0.000002 0.000003 0.000004 0.000003 0.000002 1.407368 5.379712 8.612821 -32.172090 42.555197 57.817674 -0.000046 108.000966 0.000029 -23.751809 27.231003 -0.016040 2.101953 -10.083033 3.633739 25.660775 -30.716713 6.844855 0.000001 0.000002 -0.000001 9.556183 -7.137728 86.157912 10.350180 -6.061959 119.375560 -0.000000 0.000002 0.000002 6.610169 -6.940070 87.289428 9.494163 -6.467113 111.542645 0.000001 -0.000002 -0.000001 1.946402 -7.142773 92.181141 8.379090 -6.800030 101.912317 0.000003 -0.000004 -0.000006 -2.850673 -7.675002 94.127499 8.100970 -6.852404 99.572704 0.000002 -0.000003 0.000000 -0.000001 0.000001 -0.000001 -0.000000 0.000001 0.000001 -0.000000 0.000001 0.000000 -0.000000 0.000001 0.000000 -0.000000 0.000001 0.000000 -0.000000 0.000001 0.000001 -0.000000 0.000001 -0.000000 -0.000000 0.000001 0.000000 -0.000000 0.000001 0.000000 -0.000000 0.000001 0.000001 -0.000000 0.000001 -0.000000 0.000001 -0.000001 -0.000000 0.000001 -0.000001 -0.000000 0.000001 -0.000001 -0.000000 
-0.263769 65.594559 2.435694 -24.751989 -67.076084 -24.212373 0.000001 0.000001 0.000000 -18.241960 14.629563 25.095230 40.414205 -1.615823 0.031843 -13.025099 2.086089 -14.230874 -0.000000 -0.000000 -0.000000 0.000002 0.000001 0.000000 -9.260934 -8.684999 -19.797192 37.986363 10.168361 0.992937 -22.655048 7.112768 12.861321 -0.000000 0.000000 0.000000 -0.000001 0.000000 -0.000000 9.273681 4.849761 -1.699506 1.789169 1.030230 -0.342683 1.791059 1.023946 -0.349176 5.735127 6.005582 -5.168780 1.817477 22.680319 -1.659683 0.000000 -0.000003 0.000000 0.000000 -0.000003 0.000000 0.000000 -0.000003 -0.000000 0.000000 -0.000003 -0.000000 -0.000000 -0.000004 0.000001 0.000000 -0.000003 -0.000000 -0.000000 -0.000004 0.000001 0.000000 -0.000003 0.000000 0.000000 -0.000003 0.000000 3.428577 -14.111818 -10.682609 -21.721204 27.177939 -37.084447 0.000138 -100.102392 0.000110 16.437212 -13.360870 25.639531 4.891655 7.994777 1.884009 10.475115 36.544350 -16.206454 0.000000 0.000001 0.000000 7.775689 6.956323 -86.152721 10.250080 6.003538 -119.372090 -0.000000 0.000002 0.000002 6.544560 6.873022 -87.274306 9.404146 6.404061 -111.556045 0.000003 -0.000000 -0.000003 3.127846 6.869448 -89.819672 9.007631 6.545913 -108.040697 0.000001 0.000003 -0.000005 1.160390 7.315435 -94.148427 8.017697 2.700475 -99.510734 -0.000001 0.000002 -0.000002 0.000002 0.000000 0.000001 1.503407 5.675053 8.840252 -34.223650 40.256110 58.929240 0.000114 109.416229 -0.000133 -25.408901 25.614155 -0.906774 2.101955 -10.083024 3.633738 25.660777 -30.716716 6.844857 -0.000000 -0.000002 0.000003 9.556182 -7.137724 86.157912 10.350184 -6.061964 119.375560 -0.000002 0.000002 0.000001 6.610165 -6.940066 87.289435 9.494165 -6.467112 111.542645 0.000001 -0.000004 -0.000005 1.946402 -7.142774 92.181141 8.379090 -6.800031 101.912324 -0.000002 -0.000001 -0.000001 -2.850675 -7.675000 94.127499 8.100966 -6.852407 99.572704 0.000001 -0.000002 -0.000003 0.000001 0.000004 -0.000002 -0.000000 -0.000000 0.000000 -0.000000 -0.000000 0.000000 -0.000000 -0.000000 0.000000 -0.000000 -0.000000 0.000000 -0.000000 -0.000000 0.000000 -0.000000 -0.000000 0.000000 -0.000000 -0.000000 0.000000 -0.000000 -0.000000 0.000000 -0.000000 -0.000000 0.000000 -0.000000 -0.000000 0.000000 0.000001 0.000001 0.000000 0.000001 0.000001 0.000000 0.000001 0.000001 0.000000 
-0.077411 65.502556 2.040725 -21.193590 -64.435465 -20.051349 -0.000000 0.000001 0.000000 -19.884743 14.098553 24.424722 40.210300 -2.854786 -0.047545 -11.795901 1.925320 -13.453445 -0.000000 0.000000 -0.000000 0.000001 -0.000006 -0.000003 -9.668712 -9.535965 -20.224649 39.186032 10.201315 0.895658 -23.452544 5.258111 12.411208 -0.000000 -0.000000 -0.000000 -0.000000 -0.000000 -0.000001 10.100352 5.675768 -0.932734 1.991320 1.201133 -0.135125 1.991984 1.198641 -0.141337 5.977154 5.172263 -5.330067 2.179731 20.256879 -3.007491 0.000001 0.000002 -0.000001 0.000001 0.000002 -0.000001 0.000001 0.000002 -0.000001 0.000001 0.000002 -0.000000 0.000001 0.000000 -0.000000 0.000001 0.000002 -0.000000 0.000001 0.000000 -0.000000 0.000001 0.000002 -0.000001 0.000001 0.000002 -0.000001 3.447058 -14.258863 -10.648429 -22.318692 23.242067 -38.773976 -0.000130 -100.245962 -0.000138 17.171944 -12.668176 26.189503 4.891654 7.994774 1.884010 10.475129 36.544347 -16.206456 0.000002 -0.000000 -0.000002 7.775689 6.956316 -86.152714 10.250082 6.003539 -119.372090 -0.000000 0.000002 -0.000003 6.544561 6.873016 -87.274306 9.404149 6.404061 -111.556052 0.000003 -0.000001 0.000000 3.127844 6.869444 -89.819665 9.007628 6.545910 -108.040704 -0.000002 0.000000 0.000002 1.160390 7.315428 -94.148427 8.017698 2.700475 -99.510734 -0.000002 0.000001 0.000003 0.000000 -0.000001 -0.000000 1.562986 5.787504 8.996618 -35.405423 37.944532 59.757762 0.000050 110.830365 -0.000048 -26.607791 23.560377 -1.044632 2.101950 -10.083031 3.633736 25.660775 -30.716720 6.844858 0.000004 0.000000 0.000004 9.556183 -7.137731 86.157912 10.350181 -6.061967 119.375560 0.000000 0.000001 0.000002 6.610170 -6.940067 87.289435 9.494165 -6.467107 111.542645 -0.000001 -0.000001 -0.000001 1.946405 -7.142777 92.181141 8.379088 -6.800028 101.912317 0.000001 0.000001 -0.000001 -2.850673 -7.675000 94.127499 8.100966 -6.852405 99.572704 -0.000002 0.000002 -0.000001 0.000001 -0.000002 0.000001 -0.000000 0.000002 -0.000000 0.000000 0.000000 -0.000000 -0.000000 0.000002 -0.000000 -0.000000 0.000002 -0.000000 -0.000000 0.000002 -0.000000 0.000000 0.000000 -0.000000 -0.000000 0.000002 -0.000000 -0.000000 0.000002 -0.000000 -0.000000 0.000002 -0.000000 0.000000 0.000000 -0.000000 -0.000000 0.000001 0.000000 -0.000000 0.000001 0.000000 -0.000000 0.000001 0.000000 
